<svg width="696" height="488" viewBox="0 0 696 488" fill="none" xmlns="http://www.w3.org/2000/svg">
<g clip-path="url(#clip0_4960_17622)">
<path d="M277.993 70.6542C277.876 70.6542 277.759 70.6542 277.652 70.6542C271.179 59.0065 258.76 51.1309 244.489 51.1309C223.55 51.1309 206.578 68.1004 206.578 89.0371C206.578 109.974 223.55 126.943 244.489 126.943H277.993C293.542 126.943 306.146 114.34 306.146 98.7938C306.146 83.2473 293.542 70.6444 277.993 70.6444V70.6542Z" fill="black"/>
<path d="M277.993 60.0018C277.876 60.0018 277.759 60.0018 277.652 60.0018C271.179 48.3736 258.75 40.4883 244.489 40.4883C223.55 40.4883 206.578 57.4579 206.578 78.3945C206.578 99.3311 223.55 116.301 244.489 116.301H277.993C293.542 116.301 306.146 103.698 306.146 88.1513C306.146 72.6047 293.542 60.0018 277.993 60.0018Z" fill="white" stroke="black" stroke-linecap="round" stroke-linejoin="round"/>
<path d="M445.555 323.386C445.496 322.431 445.457 321.476 445.457 320.511C445.457 295.324 465.87 274.914 491.059 274.914C510.897 274.914 527.771 287.585 534.039 305.276C545.756 305.91 555.709 313.171 560.222 323.376C570.468 325.024 578.296 333.903 578.296 344.605C578.296 356.487 568.664 366.107 556.791 366.107H449.084C437.201 366.107 427.579 356.477 427.579 344.605C427.579 333.923 435.368 325.072 445.564 323.386H445.555Z" fill="black" stroke="black" stroke-linecap="round" stroke-linejoin="round"/>
<path d="M445.555 312.732C445.496 311.777 445.457 310.821 445.457 309.856C445.457 284.67 465.87 264.26 491.059 264.26C510.897 264.26 527.771 276.931 534.039 294.622C545.756 295.255 555.709 302.517 560.222 312.722C570.468 314.369 578.296 323.249 578.296 333.951C578.296 345.833 568.664 355.453 556.791 355.453H449.084C437.201 355.453 427.579 345.823 427.579 333.951C427.579 323.268 435.368 314.418 445.564 312.732H445.555Z" fill="white" stroke="black" stroke-linecap="round" stroke-linejoin="round"/>
<path d="M345.178 70.6836C334.114 70.6836 323.332 71.863 312.941 74.0951C292.206 78.5494 273.032 87.2146 256.362 99.1449" stroke="black" stroke-linecap="square" stroke-linejoin="round" stroke-dasharray="2 2"/>
<path d="M382.806 60.1267C370.709 57.3488 358.114 55.8867 345.178 55.8867C316.265 55.8867 289.058 63.2067 265.321 76.1021" stroke="black" stroke-linecap="square" stroke-linejoin="round" stroke-dasharray="2 2"/>
<path d="M315.69 354.527L338.159 332.586C288.317 328.989 248.993 287.418 248.993 236.666C248.993 185.913 292.06 140.492 345.178 140.492V147.597L374.666 118.804L345.178 90.0215V98.3162C268.762 98.3162 206.822 160.259 206.822 236.656C206.822 313.053 264.073 370.18 336.385 374.713L315.69 354.507V354.527Z" fill="black" stroke="black" stroke-linecap="round" stroke-linejoin="round"/>
<path d="M353.971 98.6191L374.666 118.825L352.196 140.765C402.039 144.362 441.363 185.933 441.363 236.686C441.363 287.439 398.295 332.86 345.178 332.86V325.754L315.689 354.547L345.178 383.34V375.035C421.594 375.035 483.533 313.103 483.533 236.696C483.533 160.289 426.282 103.152 353.971 98.6191Z" fill="black" stroke="black" stroke-linecap="round" stroke-linejoin="round"/>
<path d="M315.69 341.271L338.159 319.33C288.317 315.734 248.993 274.162 248.993 223.41C248.993 172.657 292.06 127.236 345.178 127.236V134.341L374.666 105.549L345.178 76.7656V85.0603C268.762 85.0603 206.822 147.003 206.822 223.4C206.822 299.797 264.073 356.924 336.385 361.457L315.69 341.251V341.271Z" fill="white" stroke="black" stroke-linecap="round" stroke-linejoin="round"/>
<path d="M353.971 85.3535L374.666 105.559L352.196 127.5C402.039 131.096 441.363 172.667 441.363 223.42C441.363 274.173 398.295 319.594 345.178 319.594V312.489L315.689 341.281L345.178 370.074V361.77C421.594 361.77 483.533 299.837 483.533 223.43C483.533 147.023 426.282 89.8859 353.971 85.3535Z" fill="white" stroke="black" stroke-linecap="round" stroke-linejoin="round"/>
<path d="M309.295 387.629C320.047 390.026 331.228 391.294 342.702 391.294C370.318 391.294 396.229 383.964 418.582 371.146" stroke="black" stroke-linecap="square" stroke-linejoin="round" stroke-dasharray="2 2"/>
<path d="M290.744 396.225C307.813 402.083 326.13 405.27 345.178 405.27C361.935 405.27 378.127 402.814 393.392 398.232" stroke="black" stroke-linecap="square" stroke-linejoin="round" stroke-dasharray="2 2"/>
<path d="M136.469 406.518L230.676 426.987C242.812 429.629 252.658 421.919 252.658 409.784V208.001C252.658 195.866 242.812 183.887 230.676 181.245L136.469 160.776C124.333 158.135 114.487 165.845 114.487 177.98V379.763C114.487 391.898 124.333 403.877 136.469 406.518Z" fill="black" stroke="black" stroke-linecap="round" stroke-linejoin="round"/>
<path d="M147.017 398.768L241.224 419.237C253.36 421.879 263.206 414.169 263.206 402.034V200.251C263.206 188.116 253.36 176.137 241.224 173.495L147.017 153.026C134.881 150.385 125.035 158.095 125.035 170.23V372.013C125.035 384.148 134.881 396.127 147.017 398.768Z" fill="white" stroke="black" stroke-linecap="round" stroke-linejoin="round"/>
<path d="M241.223 416.685C251.937 419.014 260.651 412.191 260.651 401.479V199.696C260.651 188.984 251.937 178.379 241.223 176.05L147.017 155.581C136.304 153.252 127.589 160.075 127.589 170.787V372.57C127.589 383.282 136.304 393.886 147.017 396.216L241.223 416.685Z" fill="#A6FFEC" stroke="black" stroke-linecap="round" stroke-linejoin="round"/>
<path d="M260.651 314.437V401.469C260.651 412.18 251.937 418.994 241.223 416.674L147.017 396.205C136.304 393.876 127.589 383.271 127.589 372.559V254.951L260.651 314.428V314.437Z" fill="#00ED64" stroke="black" stroke-linecap="round" stroke-linejoin="round"/>
<path d="M170.637 326.338L204.98 333.805C216.288 336.261 225.451 329.087 225.451 317.79V283.451C225.451 272.145 216.288 260.994 204.98 258.538L170.637 251.072C159.329 248.616 150.166 255.789 150.166 267.086V301.425C150.166 312.732 159.329 323.882 170.637 326.338Z" fill="black" stroke="black" stroke-linecap="round" stroke-linejoin="round"/>
<path d="M194.12 182.667C198.039 183.515 201.207 181.03 201.207 177.121V164.791L187.033 161.711V174.041C187.033 177.959 190.201 181.819 194.12 182.667Z" fill="black" stroke="black" stroke-linecap="round" stroke-linejoin="round"/>
<path d="M176.944 320.032L211.287 327.498C222.595 329.954 231.758 322.78 231.758 311.484V277.145C231.758 265.838 222.595 254.688 211.287 252.231L176.944 244.765C165.636 242.309 156.473 249.483 156.473 260.78V295.118C156.473 306.425 165.636 317.575 176.944 320.032Z" fill="white" stroke="black" stroke-linecap="round" stroke-linejoin="round"/>
<path d="M215.888 301.835L172.343 292.37C171.534 292.195 170.871 292.711 170.871 293.52C170.871 294.329 171.534 295.138 172.343 295.314L215.888 304.778C216.697 304.954 217.36 304.437 217.36 303.628C217.36 302.819 216.697 302.01 215.888 301.835Z" fill="#00D2FF" stroke="black" stroke-linecap="round" stroke-linejoin="round"/>
<path d="M175.199 300.139L196.967 267.165C197.376 266.551 198.273 266.502 198.975 267.067C199.677 267.623 199.92 268.588 199.511 269.192L177.743 302.166C177.334 302.78 176.437 302.829 175.735 302.264C175.033 301.708 174.79 300.743 175.199 300.139Z" fill="#00D2FF" stroke="black" stroke-linecap="round" stroke-linejoin="round"/>
<path d="M213.139 308.374L191.371 265.945C190.962 265.155 190.065 264.717 189.363 264.97C188.661 265.224 188.417 266.072 188.827 266.861L210.595 309.29C211.004 310.08 211.901 310.518 212.603 310.265C213.305 310.011 213.548 309.163 213.139 308.374Z" fill="#00D2FF" stroke="black" stroke-linecap="round" stroke-linejoin="round"/>
<path d="M194.12 297.107L215.888 301.835C216.697 302.01 217.36 302.819 217.36 303.628C217.36 304.437 216.697 304.954 215.888 304.778L194.12 300.051" fill="#00D2FF"/>
<path d="M194.12 297.107L215.888 301.835C216.697 302.01 217.36 302.819 217.36 303.628C217.36 304.437 216.697 304.954 215.888 304.778L194.12 300.051" stroke="black" stroke-linecap="round" stroke-linejoin="round"/>
<path d="M564.464 224.054L425.299 254.299C415.882 256.346 408.259 250.371 408.259 240.965V157.238C408.259 147.823 415.892 138.534 425.299 136.496L564.464 106.251C573.88 104.205 581.503 110.179 581.503 119.585V203.312C581.503 212.728 573.87 222.017 564.464 224.054Z" fill="black" stroke="black" stroke-linecap="round" stroke-linejoin="round"/>
<path d="M553.458 213.341L414.293 243.586C404.876 245.633 397.253 239.658 397.253 230.252V146.525C397.253 137.11 404.886 127.821 414.293 125.784L553.458 95.5385C562.874 93.4917 570.497 99.4666 570.497 108.872V192.599C570.497 202.015 562.865 211.304 553.458 213.341Z" fill="#00ED64" stroke="black" stroke-linecap="round" stroke-linejoin="round"/>
<path d="M555.242 212.962L412.509 243.977C404.086 245.809 397.253 240.458 397.253 232.037V152.872L570.507 115.219V194.384C570.507 202.806 563.674 211.13 555.251 212.952L555.242 212.962Z" fill="white" stroke="black" stroke-linecap="round" stroke-linejoin="round"/>
<path d="M397.243 152.872L570.497 115.219" stroke="black" stroke-linecap="round" stroke-linejoin="round"/>
<path d="M541.931 108.897C549.866 100.054 550.53 87.7098 543.413 81.325C536.296 74.9402 524.094 76.9328 516.159 85.7757C508.224 94.6186 507.56 106.963 514.677 113.348C521.794 119.733 533.996 117.74 541.931 108.897Z" fill="white" stroke="black" stroke-linecap="round" stroke-linejoin="round"/>
<path d="M531.203 104.047C530.13 104.047 528.961 104.602 528.132 105.616C526.826 107.205 526.826 109.32 528.132 110.334C528.6 110.704 529.175 110.88 529.779 110.88C530.852 110.88 532.022 110.324 532.85 109.31C534.156 107.722 534.156 105.606 532.85 104.593C532.382 104.222 531.807 104.047 531.203 104.047Z" fill="black"/>
<path d="M527.352 101.445L533.62 100.08L534.595 87.37C534.76 85.2354 533.328 83.7148 531.358 83.7148C531.076 83.7148 530.783 83.7441 530.481 83.8123C528.073 84.3387 526.182 86.7949 526.367 89.1537L527.059 97.7993L525.899 100.295L527.352 101.425V101.445Z" fill="black"/>
<path d="M532.177 98.9406L525.909 100.305L524.934 88.024C524.749 85.6652 526.64 83.2089 529.048 82.6826C531.456 82.1563 533.347 83.7938 533.162 86.2403L532.187 98.9504L532.177 98.9406Z" fill="#00D2FF" stroke="black" stroke-linecap="round" stroke-linejoin="round"/>
<path d="M526.894 108.951L531.193 103.717L532.372 104.643L528.073 109.877L526.894 108.951Z" fill="#001E2B"/>
<path d="M531.241 104.174L531.904 104.691L528.015 109.418L527.352 108.901L531.241 104.174ZM531.144 103.258L526.426 108.999L528.122 110.324L532.84 104.583L531.144 103.258Z" fill="#001E2B"/>
<path d="M531.272 108.335C532.645 106.804 532.762 104.669 531.531 103.565C530.301 102.461 528.19 102.807 526.817 104.338C525.443 105.869 525.327 108.004 526.558 109.108C527.788 110.211 529.898 109.865 531.272 108.335Z" fill="#00D2FF" stroke="black" stroke-linecap="round" stroke-linejoin="round"/>
<path d="M556.723 135.335L409.584 167.315C408.628 167.52 407.839 166.906 407.839 165.951C407.839 164.996 408.619 164.04 409.584 163.836L556.723 131.856C557.678 131.651 558.468 132.265 558.468 133.22C558.468 134.176 557.688 135.131 556.723 135.335Z" fill="#A6FFEC" stroke="black" stroke-linecap="round" stroke-linejoin="round"/>
<path d="M556.723 181.869L409.584 213.849C408.628 214.053 407.839 213.439 407.839 212.484C407.839 211.529 408.619 210.574 409.584 210.369L556.723 178.389C557.678 178.184 558.468 178.798 558.468 179.754C558.468 180.709 557.688 181.664 556.723 181.869Z" fill="#A6FFEC" stroke="black" stroke-linecap="round" stroke-linejoin="round"/>
<path d="M483.007 213.4L409.584 229.356C408.628 229.56 407.839 228.946 407.839 227.991C407.839 227.036 408.619 226.081 409.584 225.876L483.007 209.92C483.962 209.716 484.752 210.33 484.752 211.285C484.752 212.24 483.972 213.195 483.007 213.4Z" fill="#A6FFEC" stroke="black" stroke-linecap="round" stroke-linejoin="round"/>
<path d="M461.629 187.025L409.584 198.331C408.628 198.536 407.839 197.922 407.839 196.967C407.839 196.012 408.619 195.056 409.584 194.852L461.629 183.545C462.585 183.341 463.374 183.955 463.374 184.91C463.374 185.865 462.594 186.82 461.629 187.025Z" fill="#A6FFEC" stroke="black" stroke-linecap="round" stroke-linejoin="round"/>
<path d="M556.723 166.351L468.883 185.436C467.927 185.64 467.138 185.026 467.138 184.071C467.138 183.116 467.918 182.161 468.883 181.956L556.723 162.871C557.679 162.667 558.468 163.281 558.468 164.236C558.468 165.191 557.688 166.146 556.723 166.351Z" fill="#A6FFEC" stroke="black" stroke-linecap="round" stroke-linejoin="round"/>
<path d="M504.678 158.67L556.723 147.364C557.678 147.159 558.468 147.773 558.468 148.728C558.468 149.683 557.688 150.639 556.723 150.843L504.678 162.15C503.722 162.355 502.933 161.74 502.933 160.785C502.933 159.83 503.712 158.875 504.678 158.67Z" fill="#A6FFEC" stroke="black" stroke-linecap="round" stroke-linejoin="round"/>
<path d="M409.574 179.333L497.415 160.248C498.37 160.044 499.16 160.658 499.16 161.613C499.16 162.568 498.38 163.523 497.415 163.728L409.574 182.813C408.619 183.017 407.829 182.403 407.829 181.448C407.829 180.493 408.609 179.538 409.574 179.333Z" fill="#A6FFEC" stroke="black" stroke-linecap="round" stroke-linejoin="round"/>
<path d="M414.009 140.512C415.386 138.978 415.502 136.836 414.267 135.729C413.033 134.622 410.916 134.968 409.539 136.503C408.162 138.037 408.046 140.179 409.281 141.286C410.515 142.393 412.632 142.047 414.009 140.512Z" fill="white" stroke="black" stroke-linecap="round" stroke-linejoin="round"/>
<path d="M423.292 138.499C424.669 136.964 424.785 134.823 423.551 133.715C422.316 132.608 420.2 132.954 418.822 134.489C417.445 136.024 417.33 138.165 418.564 139.272C419.798 140.38 421.915 140.033 423.292 138.499Z" fill="white" stroke="black" stroke-linecap="round" stroke-linejoin="round"/>
<path d="M432.586 136.475C433.963 134.941 434.079 132.799 432.845 131.692C431.61 130.585 429.493 130.931 428.116 132.466C426.739 134 426.624 136.142 427.858 137.249C429.092 138.356 431.209 138.01 432.586 136.475Z" fill="white" stroke="black" stroke-linecap="round" stroke-linejoin="round"/>
<path d="M242.111 138.044L238.143 135.754C235.745 138.678 233.464 141.709 231.31 144.828V156.759L242.111 150.521L252.912 144.283L242.111 138.044Z" fill="black"/>
<path d="M219.056 134.732L206.549 141.955L194.042 149.177V134.732V120.297L206.549 127.51L219.056 134.732Z" fill="white" stroke="black" stroke-linecap="round" stroke-linejoin="round"/>
<path d="M202.845 134.732L194.042 120.297V149.177L202.845 134.732Z" fill="black"/>
<path d="M202.845 134.732H219.056" stroke="black" stroke-linecap="round" stroke-linejoin="round"/>
<path d="M421.058 408.73C427.965 408.73 433.565 403.131 433.565 396.224C433.565 389.318 427.965 383.719 421.058 383.719C414.15 383.719 408.551 389.318 408.551 396.224C408.551 403.131 414.15 408.73 421.058 408.73Z" fill="white" stroke="black" stroke-linecap="round" stroke-linejoin="round"/>
<path d="M414.019 406.557C416.028 407.921 418.445 408.73 421.058 408.73C427.969 408.73 433.565 403.136 433.565 396.225C433.565 393.613 432.765 391.186 431.391 389.188C426.975 396.205 421.028 402.151 414.01 406.566L414.019 406.557Z" fill="black" stroke="black" stroke-linecap="round" stroke-linejoin="round"/>
</g>
<defs>
<clipPath id="clip0_4960_17622">
<rect width="468" height="388" fill="white" transform="translate(114 40)"/>
</clipPath>
</defs>
</svg>
