<?xml version="1.0" encoding="UTF-8"?>
<svg width="492px" height="437px" viewBox="0 0 492 437" version="1.1" xmlns="http://www.w3.org/2000/svg" xmlns:xlink="http://www.w3.org/1999/xlink">
    <defs>
        <path d="M491.3,218.5 C491.3,186 450.6,155.2 388.2,136.1 C402.6,72.5 396.2,21.9 368,5.7 C361.5,1.9 353.9,0.1 345.6,0.1 L345.6,22.4 C350.2,22.4 353.9,23.3 357,25 C370.6,32.8 376.5,62.5 371.9,100.7 C370.8,110.1 369,120 366.8,130.1 C347.2,125.3 325.8,121.6 303.3,119.2 C289.8,100.7 275.8,83.9 261.7,69.2 C294.3,38.9 324.9,22.3 345.7,22.3 L345.7,0 C345.7,0 345.7,0 345.7,0 C318.2,0 282.2,19.6 245.8,53.6 C209.4,19.8 173.4,0.4 145.9,0.4 L145.9,22.7 C166.6,22.7 197.3,39.2 229.9,69.3 C215.9,84 201.9,100.7 188.6,119.2 C166,121.6 144.6,125.3 125,130.2 C122.7,120.2 121,110.5 119.8,101.2 C115.1,63 120.9,33.3 134.4,25.4 C137.4,23.6 141.3,22.8 145.9,22.8 L145.9,0.5 C145.9,0.5 145.9,0.5 145.9,0.5 C137.5,0.5 129.9,2.3 123.3,6.1 C95.2,22.3 88.9,72.8 103.4,136.2 C41.2,155.4 0.7,186.1 0.7,218.5 C0.7,251 41.4,281.8 103.8,300.9 C89.4,364.5 95.8,415.1 124,431.3 C130.5,435.1 138.1,436.9 146.5,436.9 C174,436.9 210,417.3 246.4,383.3 C282.8,417.1 318.8,436.5 346.3,436.5 C354.7,436.5 362.3,434.7 368.9,430.9 C397,414.7 403.3,364.2 388.8,300.8 C450.8,281.7 491.3,250.9 491.3,218.5 Z M361.1,151.8 C357.4,164.7 352.8,178 347.6,191.3 C343.5,183.3 339.2,175.3 334.5,167.3 C329.9,159.3 325,151.5 320.1,143.9 C334.3,146 348,148.6 361.1,151.8 Z M315.3,258.3 C307.5,271.8 299.5,284.6 291.2,296.5 C276.3,297.8 261.2,298.5 246,298.5 C230.9,298.5 215.8,297.8 201,296.6 C192.7,284.7 184.6,272 176.8,258.6 C169.2,245.5 162.3,232.2 156,218.8 C162.2,205.4 169.2,192 176.7,178.9 C184.5,165.4 192.5,152.6 200.8,140.7 C215.7,139.4 230.8,138.7 246,138.7 C261.1,138.7 276.2,139.4 291,140.6 C299.3,152.5 307.4,165.2 315.2,178.6 C322.8,191.7 329.7,205 336,218.4 C329.7,231.8 322.8,245.2 315.3,258.3 Z M347.6,245.3 C353,258.7 357.6,272.1 361.4,285.1 C348.3,288.3 334.5,291 320.2,293.1 C325.1,285.4 330,277.5 334.6,269.4 C339.2,261.4 343.5,253.3 347.6,245.3 Z M246.2,352 C236.9,342.4 227.6,331.7 218.4,320 C227.4,320.4 236.6,320.7 245.9,320.7 C255.3,320.7 264.6,320.5 273.7,320 C264.7,331.7 255.4,342.4 246.2,352 Z M171.8,293.1 C157.6,291 143.9,288.4 130.8,285.2 C134.5,272.3 139.1,259 144.3,245.7 C148.4,253.7 152.7,261.7 157.4,269.7 C162.1,277.7 166.9,285.5 171.8,293.1 Z M245.7,85 C255,94.6 264.3,105.3 273.5,117 C264.5,116.6 255.3,116.3 246,116.3 C236.6,116.3 227.3,116.5 218.2,117 C227.2,105.3 236.5,94.6 245.7,85 Z M171.7,143.9 C166.8,151.6 161.9,159.5 157.3,167.6 C152.7,175.6 148.4,183.6 144.3,191.6 C138.9,178.2 134.3,164.8 130.5,151.8 C143.6,148.7 157.4,146 171.7,143.9 Z M81.2,269.1 C45.8,254 22.9,234.2 22.9,218.5 C22.9,202.8 45.8,182.9 81.2,167.9 C89.8,164.2 99.2,160.9 108.9,157.8 C114.6,177.4 122.1,197.8 131.4,218.7 C122.2,239.5 114.8,259.8 109.2,279.3 C99.3,276.2 89.9,272.8 81.2,269.1 Z M135,412 C121.4,404.2 115.5,374.5 120.1,336.3 C121.2,326.9 123,317 125.2,306.9 C144.8,311.7 166.2,315.4 188.7,317.8 C202.2,336.3 216.2,353.1 230.3,367.8 C197.7,398.1 167.1,414.7 146.3,414.7 C141.8,414.6 138,413.7 135,412 Z M372.2,335.8 C376.9,374 371.1,403.7 357.6,411.6 C354.6,413.4 350.7,414.2 346.1,414.2 C325.4,414.2 294.7,397.7 262.1,367.6 C276.1,352.9 290.1,336.2 303.4,317.7 C326,315.3 347.4,311.6 367,306.7 C369.3,316.8 371.1,326.5 372.2,335.8 Z M410.7,269.1 C402.1,272.8 392.7,276.1 383,279.2 C377.3,259.6 369.8,239.2 360.5,218.3 C369.7,197.5 377.1,177.2 382.7,157.7 C392.6,160.8 402,164.2 410.8,167.9 C446.2,183 469.1,202.8 469.1,218.5 C469,234.2 446.1,254.1 410.7,269.1 Z M245.9,264.2 C220.660587,264.2 200.2,243.739413 200.2,218.5 C200.2,193.260587 220.660587,172.8 245.9,172.8 C271.139413,172.8 291.6,193.260587 291.6,218.5 C291.6,243.739413 271.139413,264.2 245.9,264.2 Z" id="react-logo"></path>
    </defs>
    <g id="react-realm-context-logo" stroke="none" stroke-width="1" fill="none" fill-rule="evenodd">
        <mask id="react-logo-mask" fill="white">
            <use xlink:href="#react-logo"></use>
        </mask>
        <g id="realm-logo" mask="url(#react-logo-mask)" fill-rule="nonzero">
            <g transform="translate(0.000000, -27.000000)">
                <path d="M350.748521,23.7709747 C318.821171,8.52907617 283.102078,0 245.399587,0 C179.628009,0 119.89239,25.9560405 75.7930535,68.2258088 C28.9081781,113.165551 433.733091,63.3872406 350.748521,23.7709747 Z" id="Melon" fill="#FCC397"></path>
                <path d="M437.997136,92.2048926 C438.278016,92.5552397 417.943031,119.681076 356.826807,127.381951 C233.467874,142.925641 21.6811518,144.569073 22.0003604,143.869023 C35.1017364,115.136653 53.5918488,89.3690427 76.182074,67.8523145 C102.798776,76.1465042 131.769957,78.2133611 159.173401,73.1731759 C204.421489,64.9113501 244.678377,38.8170687 289.435528,28.1830355 C309.301809,23.4196794 330.945586,22.0283129 351.330174,23.6444326 C385.202496,39.7125607 414.810239,63.2834035 437.997136,92.2048926 Z" id="Peach" fill="#FC9F95"></path>
                <path d="M487.999935,208.066688 C488.155524,209.057906 210.254209,235.23877 74.85357,227.607793 C30.7386708,225.121544 4.70396327,198.389616 5.00254055,196.930076 C8.72336059,178.741528 14.4467194,161.284631 21.9315928,144.800948 C61.0493457,123.341577 107.071214,110.957171 151.697192,111.445906 C207.659572,112.020025 262.55989,130.719876 318.522268,129.325589 C360.082418,128.266217 401.972832,114.971776 437.286868,93 C463.312122,125.597823 481.235931,164.975128 487.999935,208.066688 Z" id="Sexy-Salmon" fill="#F77C88"></path>
                <path d="M491,245.531459 C491,246.89407 490.966895,249.611439 490.966895,249.611439 C490.966895,249.611439 413.777934,269.113441 314.368313,267.949934 C175.130116,266.320267 -0.00347371105,243.822967 0,243.410985 C0.137579401,227.09405 1.86156524,211.156126 5.02500601,195.744414 C38.3843657,216.362761 78.8408499,226.460776 117.779876,222.210477 C148.743667,218.849561 178.155185,207.373261 206.831413,195.159198 C235.507642,182.945136 264.020474,169.829364 294.330677,162.779638 C338.856446,152.450967 386.486763,156.057805 429.051764,172.862386 C449.758889,181.042231 470.305054,192.802119 488.001335,206.982957 C489.975163,219.542024 491,232.416856 491,245.531459 Z" id="Flamingo" fill="#F25192"></path>
                <path d="M212.568641,325.453818 C138.917137,339.116379 12.5221806,323.357956 12.2036618,322.383605 C4.283965,298.157227 0,272.274603 0,245.386889 C0,244.676832 0.00298761269,243.967477 0.00895089958,243.258834 C11.1898306,234.352946 24.2498537,226.411809 36.9991858,220.241279 C68.5324998,204.870263 104.313825,198.458824 139.196533,201.911137 C173.670778,205.363451 206.592865,218.18633 238.452949,231.995585 C265.294981,243.629842 291.963057,256.197609 319.825049,264.881706 C322.55434,265.732379 293.641965,310.414491 212.568641,325.453818 Z" id="Mulberry" fill="#D34CA3"></path>
                <path d="M482.177798,310.908599 C477.035652,319.611521 428.129609,348.929647 361.834825,353.950743 C274.057354,360.598916 170.362047,334.008822 204.759828,320.477144 C258.91517,299.15867 305.882472,260.867411 361.834823,244.878555 C403.633452,232.878831 449.967188,234.776111 491,249.275853 C490.654443,270.589002 487.604036,291.243162 482.177798,310.908599 Z" id="Grape-Jelly" fill="#9A50A5"></path>
                <path d="M458.237237,368.551868 C415.840291,442.359276 108.347858,460.868477 63.4276427,411.219958 C40.5617116,385.947158 22.861893,355.888603 12,322.720653 C49.7614684,301.079419 93.9652372,291.888006 136.453148,297.714706 C191.44231,305.264795 240.711944,336.039617 294.965738,348.02128 C338.76097,357.705091 385.170841,354.668642 427.331923,339.40433 C446.390998,332.450772 465.289044,323.132327 482,311.611576 C476.448246,331.744771 468.409913,350.842599 458.237237,368.551868 Z" id="Indigo" fill="#59569E"></path>
                <path d="M459,367.042036 C416.712143,441.097038 337.090471,491 245.835948,491 C173.737118,491 108.899912,459.848858 64,410.246883 C71.4510166,413.100978 79.7845524,415.568117 87.4226294,417.72409 C130.135505,429.526921 176.115141,429.199064 218.583009,416.658556 C245.77878,408.626074 271.341171,395.839673 298.046926,386.167909 C349.007199,367.755915 405.097285,361.271869 459,367.042036 Z" id="East-Bay" fill="#39477F"></path>
            </g>
        </g>
    </g>
</svg>
